<svg width="81" height="25" viewBox="0 0 81 25" fill="none" xmlns="http://www.w3.org/2000/svg">
<path fill-rule="evenodd" clip-rule="evenodd" d="M78.0716 23.757C77.3551 23.8542 76.7544 23.9028 76.2697 23.9028C74.2676 23.9028 72.7554 23.4439 71.7333 22.5261C70.7112 21.6082 70.2001 20.2531 70.2001 18.4606V10.9127H66.8175V6.53944H70.2001V2.1338L75.3213 1V6.53944H80V10.9127H75.3213V17.4239C75.3213 18.1798 75.4847 18.7143 75.8113 19.0275C76.138 19.3406 76.7123 19.4972 77.5342 19.4972C77.9346 19.4972 78.314 19.4702 78.6723 19.4162C79.0305 19.3622 79.4204 19.2704 79.8419 19.1408V23.3845C79.3783 23.5357 78.7882 23.6599 78.0716 23.757ZM6.12125 11.9493V23.6761H1V6.53944H6.12125V7.64084C6.71135 7.16573 7.35941 6.80939 8.06543 6.57183C8.77144 6.33427 9.51434 6.21549 10.2941 6.21549C11.3268 6.21549 12.2699 6.42606 13.1234 6.84718C13.977 7.26831 14.6883 7.84601 15.2573 8.58028C15.9317 7.82441 16.7326 7.24131 17.6599 6.83099C18.5872 6.42066 19.5988 6.21549 20.6947 6.21549C22.5914 6.21549 24.1457 6.86338 25.3575 8.15915C26.5694 9.45493 27.1753 11.107 27.1753 13.1155V23.6761H22.054V13.8282C22.054 12.8995 21.8064 12.1491 21.3111 11.5768C20.8159 11.0045 20.1573 10.7183 19.3353 10.7183C18.7663 10.7183 18.25 10.8317 17.7863 11.0585C17.3227 11.2852 16.9222 11.6038 16.585 12.0141C16.6061 12.1869 16.6219 12.365 16.6325 12.5486C16.643 12.7322 16.6483 12.9211 16.6483 13.1155V23.6761H11.527V13.8282C11.527 12.8995 11.2794 12.1491 10.7841 11.5768C10.2888 11.0045 9.63025 10.7183 8.80832 10.7183C8.2393 10.7183 7.72822 10.8209 7.27511 11.0261C6.822 11.2312 6.43738 11.539 6.12125 11.9493ZM42.3019 23.3845C41.1955 23.7948 39.9468 24 38.5558 24C37.2913 24 36.1006 23.7732 34.9836 23.3197C33.8666 22.8662 32.9024 22.2399 32.091 21.4408C31.2796 20.6418 30.6369 19.6969 30.1627 18.6063C29.6885 17.5157 29.4514 16.3549 29.4514 15.1239C29.4514 13.893 29.6779 12.7322 30.1311 11.6415C30.5842 10.5509 31.2006 9.6061 31.9804 8.80704C32.7602 8.00798 33.6822 7.38169 34.7465 6.92817C35.8108 6.47465 36.9541 6.24789 38.1765 6.24789C39.3988 6.24789 40.5263 6.48545 41.559 6.96056C42.5917 7.43568 43.4821 8.08357 44.2303 8.90423C44.9785 9.72488 45.5633 10.7129 45.9848 11.8683C46.4063 13.0237 46.617 14.2709 46.617 15.6099V16.9056H34.6991C35.0363 17.7047 35.5632 18.358 36.2797 18.8655C36.9963 19.373 37.8393 19.6268 38.8087 19.6268C39.5042 19.6268 40.1365 19.5134 40.7055 19.2866C41.2745 19.0599 41.7592 18.7413 42.1597 18.331L45.5422 21.4085C44.4885 22.3155 43.4084 22.9742 42.3019 23.3845ZM41.5906 13.2451H34.6042C34.8571 12.3812 35.2892 11.7117 35.9004 11.2366C36.5115 10.7615 37.2386 10.5239 38.0816 10.5239C38.9036 10.5239 39.6254 10.7723 40.2471 11.269C40.8688 11.7657 41.3167 12.4244 41.5906 13.2451ZM61.1114 23.3845C60.005 23.7948 58.7563 24 57.3653 24C56.1008 24 54.9101 23.7732 53.7931 23.3197C52.6761 22.8662 51.712 22.2399 50.9006 21.4408C50.0892 20.6418 49.4464 19.6969 48.9722 18.6063C48.498 17.5157 48.2609 16.3549 48.2609 15.1239C48.2609 13.893 48.4875 12.7322 48.9406 11.6415C49.3937 10.5509 50.0101 9.6061 50.7899 8.80704C51.5697 8.00798 52.4917 7.38169 53.556 6.92817C54.6203 6.47465 55.7636 6.24789 56.986 6.24789C58.2084 6.24789 59.3359 6.48545 60.3685 6.96056C61.4012 7.43568 62.2917 8.08357 63.0398 8.90423C63.788 9.72488 64.3728 10.7129 64.7943 11.8683C65.2158 13.0237 65.4266 14.2709 65.4266 15.6099V16.9056H53.5086C53.8458 17.7047 54.3727 18.358 55.0892 18.8655C55.8058 19.373 56.6488 19.6268 57.6182 19.6268C58.3137 19.6268 58.946 19.5134 59.515 19.2866C60.084 19.0599 60.5688 18.7413 60.9692 18.331L64.3517 21.4085C63.298 22.3155 62.2179 22.9742 61.1114 23.3845ZM60.4002 13.2451H53.4138C53.6667 12.3812 54.0987 11.7117 54.7099 11.2366C55.3211 10.7615 56.0482 10.5239 56.8912 10.5239C57.7131 10.5239 58.4349 10.7723 59.0566 11.269C59.6783 11.7657 60.1262 12.4244 60.4002 13.2451Z" fill="#28283D"/>
</svg>
